<?xml version="1.0" encoding="UTF-8" standalone="no"?>
<svg
   xmlns:dc="http://purl.org/dc/elements/1.1/"
   xmlns:cc="http://creativecommons.org/ns#"
   xmlns:rdf="http://www.w3.org/1999/02/22-rdf-syntax-ns#"
   xmlns:svg="http://www.w3.org/2000/svg"
   xmlns="http://www.w3.org/2000/svg"
   viewBox="0 0 6658.1602 6666.6665"
   height="6666.6665"
   width="6658.1602"
   xml:space="preserve"
   id="svg2"
   version="1.1"><metadata
     id="metadata8"><rdf:RDF><cc:Work
         rdf:about=""><dc:format>image/svg+xml</dc:format><dc:type
           rdf:resource="http://purl.org/dc/dcmitype/StillImage" /></cc:Work></rdf:RDF></metadata><defs
     id="defs6" /><g
     transform="matrix(1.3333333,0,0,-1.3333333,0,6666.6667)"
     id="g10"><g
       transform="scale(0.1)"
       id="g12"><g
         transform="scale(2.37149)"
         id="g14"><path
           id="path16"
           style="fill:#050607;fill-opacity:1;fill-rule:nonzero;stroke:none"
           d="m 9987.98,1249.85 c -703.4,19.73 -1391.15,129.15 -2056.72,363.73 -189.42,66.76 -371.59,150.71 -550.71,241.2 -35.17,17.75 -68.23,39.85 -101.5,61.14 -28.72,18.35 -38.58,43.86 -30.23,78.52 23.53,97.62 43.09,196.21 68.05,293.45 77.93,303.47 159.9,605.98 236.02,909.93 83.49,333.55 168.58,666.71 236.81,1003.88 49.55,244.7 90.03,490.92 125.53,738.1 32.93,229.56 54.57,459.63 51.53,691.81 -2.28,173.81 -9.19,347.24 -38.71,518.91 -27.62,160.62 -79.99,311.87 -172.21,448.07 -153.62,226.78 -305.84,454.57 -459.12,681.64 -376.35,557.54 -754.97,1113.65 -1128.91,1672.83 -294.42,440.19 -585.67,882.61 -873.29,1327.34 -101.04,156.2 -206.88,307.7 -323.05,452.9 -154.08,192.6 -298.5,392.5 -436.09,597.3 -64.69,96.3 -119.25,197.9 -166.36,303.9 -123.63,278.3 -124.6,560.6 -28.21,846 37.2,110.1 91.04,212.3 148.98,312.6 161.59,279.6 341.56,547.4 524.73,813 261.06,378.6 542.07,742.6 817.25,1110.8 227.88,304.7 450.78,613.4 693.16,907 106.55,129.1 203.33,266.2 316.72,389.8 43.34,47.3 90.82,89.7 139.11,131.7 146.06,126.9 311.74,154.6 494.62,103.7 120.22,-33.5 237.15,-76.7 352.19,-124.3 283.53,-117.4 566.52,-236.1 848.58,-357 385.45,-165.2 777.14,-314.9 1164.92,-474.4 317.73,-130.7 632.93,-266.9 930.43,-440.5 63,-36.8 125.7,-74.4 186.2,-115 42.9,-28.6 82.7,-62.1 122.8,-94.7 130.5,-106.1 194.7,-245.8 206.4,-412 8.2,-115.8 6.4,-231.7 -2.8,-347.1 -12.1,-151.7 -27.8,-303.4 -69.7,-450.6 -10,-35.1 -22.5,-69.4 -34.3,-103.9 -18,-52.7 -54.2,-85.6 -107,-103.7 -115.4,-39.4 -232.7,-71 -353.5,-87.1 -232,-30.8 -464.2,-61.4 -696.6,-89 -217.4,-25.7 -435.07,-50.3 -653.07,-70.1 -229.39,-20.8 -447.65,23.5 -653.6,127.9 -133.67,67.8 -256.67,151.1 -370.86,248 -109.17,92.5 -215.82,187.8 -318.03,288.1 -54.35,53.3 -110.31,104.9 -166.69,156 -36.18,32.9 -76.15,60.7 -122.12,78.6 -23.27,9.1 -45.03,-2.9 -45.62,-27.4 -0.68,-27.1 -0.17,-55.1 5.57,-81.5 20.11,-92.4 48.83,-182.3 93.99,-265.9 41.95,-77.6 84.92,-154.7 127.34,-232.1 55.66,-101.4 107.45,-204.7 144.3,-314.8 16.4,-49.1 31.5,-98.5 31.96,-151.2 0.47,-58.5 -26.06,-99 -78.81,-122 -68.6,-30.1 -141.89,-34 -214.88,-31.5 -100.62,3.3 -200.85,0.2 -300.83,-9.3 -57.43,-5.4 -114.53,-15 -171.45,-24.5 -20.79,-3.5 -41.2,-10.8 -60.89,-18.7 -22.18,-8.8 -29.69,-29.1 -23.36,-52.2 10.08,-36.8 33.65,-64.5 59.96,-90.1 59.33,-57.6 125.49,-106.2 199.58,-142.9 51.66,-25.6 104.28,-49.7 157.83,-71.1 293.32,-117.5 586.89,-234.3 880.67,-350.6 121.7,-48.2 239.85,-103.4 353.41,-168.9 123.09,-70.9 226.4,-163.7 312.63,-276.2 96.35,-125.5 193.84,-250.3 288.47,-377.1 49.08,-65.8 96.1,-133.6 138.94,-203.6 289.35,-472.3 593.76,-935.31 876.16,-1411.93 301.1,-507.87 597.6,-1018.31 877.3,-1538.36 59.1,-109.84 116.7,-220.41 162.4,-336.83 28,-71.35 45.4,-145.14 56.2,-220.66 9.8,-68.95 -3.7,-133.76 -40.7,-192.54 -27.6,-43.73 -58.6,-84.84 -93.7,-123.43 -127.2,-140.04 -270.5,-263.12 -408.3,-391.94 -40.1,-37.45 -80.5,-74.43 -110.9,-120.77 -28.5,-43.48 -23.4,-58.19 23.8,-70.42 53.8,-13.96 107.7,-18.09 162.5,-5.53 50.3,11.52 100.9,21.64 151.3,33.11 29.6,6.74 58.6,16.27 88.3,22.3 70.5,14.3 125.2,-9.61 163.8,-70.67 43.4,-68.73 61.9,-145.35 68.6,-224.84 4.6,-54.56 5.1,-109.59 5.7,-164.41 3.6,-335.57 -15.3,-669.92 -54.4,-1003.21 -42.9,-365.97 -86.4,-731.86 -128.1,-1098 -28,-245.08 -53,-490.53 -79.6,-735.78 -27.9,-257.35 -57.5,-514.49 -83.9,-771.96 -16.5,-160.58 -27.9,-321.66 -42.7,-482.44 -15.3,-166.82 -33.4,-333.38 -47.4,-500.28 -3.9,-46.59 -27.3,-71.51 -66.8,-87.96 -53.6,-22.35 -109.5,-36.14 -166.3,-46.76 -318.3,-59.33 -639.3,-81.18 -962.72,-73.54" /></g><g
         transform="scale(2.29593)"
         id="g18"><path
           id="path20"
           style="fill:#050607;fill-opacity:1;fill-rule:nonzero;stroke:none"
           d="m 11898.3,1727.05 c 12.2,226.49 33.6,451.98 55.3,677.51 21.3,222.35 42.9,444.65 63.9,667 16.3,172.26 32.4,344.57 47.5,516.92 8.8,100.3 14.8,200.83 23,301.18 27.6,338.64 54,677.42 84,1015.88 32.3,363.56 79.6,725.2 141,1085.1 24.3,142.51 40.9,286.37 61.7,429.54 6.3,43.55 12.7,87.24 22.6,130.05 24.5,105.67 86,171.92 198.6,183.94 84.3,9.01 168.2,21.78 252.4,31.49 142.9,16.46 136.9,85.37 93.6,172.13 -37.9,75.87 -76.5,151.66 -120.4,224.14 -255.3,422.4 -516.5,841.18 -792.7,1250.29 -443.4,656.69 -871.4,1323.26 -1281.5,2001.28 -130.2,215.1 -257.9,431.7 -384.5,648.9 -107.8,184.8 -195.1,380.1 -283.3,574.7 -10.3,22.6 -18.5,47.1 -22.4,71.6 -9.2,58.4 13.2,96.7 66.1,121.7 35.1,16.6 72.3,19.1 110.3,20.2 151.1,4.3 301.5,-6.7 451.4,-23.9 256.1,-29.3 509.1,-76.7 757.3,-146.7 358.1,-100.7 683.5,-265.9 973.6,-500.1 132.3,-106.7 258.6,-219.7 378,-340.8 72.9,-73.8 150.5,-142.9 227.4,-212.6 139.9,-126.8 268.5,-265.1 399.8,-400.5 136.9,-141.4 294.4,-254.67 460,-358.2 160.2,-100.18 335.7,-118.6 517.5,-87.16 229.1,39.55 438.4,132.19 632.2,258.16 253,164.3 501.9,334.7 742.8,516.6 105.3,79.6 210.1,160.1 325.4,225.1 29.9,16.9 60.6,33.9 92.9,44.8 45.6,15.3 80.9,-4.4 94.4,-51.6 7.7,-26.8 10,-55.7 10.7,-83.7 3.1,-119.9 -11.4,-238.8 -27.9,-357.2 -79.2,-565.75 -239.1,-1111.41 -414.3,-1653.1 -139.3,-430.77 -295.1,-855.43 -480.1,-1268.81 -146.7,-327.8 -316.4,-642.62 -527.4,-934.44 -110.5,-152.79 -218,-307.76 -321.9,-465.3 -179.4,-271.78 -269.8,-571.92 -304.2,-892.45 -28.6,-266.03 -46.7,-532.76 -57.9,-800.06 -5.9,-141.47 -11.9,-282.94 -19,-424.36 -17,-337.25 6.8,-672.93 32.7,-1008.87 15.2,-197.57 28.3,-395.61 24,-594.05 -1.1,-53.27 -8.6,-106.58 -16.1,-159.46 -9.6,-68.43 -43.3,-123.96 -98.1,-166.16 -14.9,-11.5 -29.9,-23 -45.8,-33.06 -442.4,-279.63 -913.6,-485.9 -1433.6,-570.92 -118.1,-19.3 -236.6,-30.97 -355.2,-43.65 -59.7,-6.4 -119.7,1.53 -178.2,12.85 -88.2,17.12 -171.1,52.92 -175.3,197.96 -1.9,65.99 -0.3,132.1 -0.3,198.13" /></g><g
         transform="scale(2.20213)"
         id="g22"><path
           id="path24"
           style="fill:#050607;fill-opacity:1;fill-rule:nonzero;stroke:none"
           d="m 12974.3,12133.8 c -136.7,-4.7 -285.4,35.2 -434.4,73.9 -186.9,48.7 -367.8,116.2 -551,176.8 -55.9,18.5 -112.1,35.8 -167.9,54.3 -24.9,8.2 -49.1,18.1 -73.8,26.6 -70.3,24.2 -121,110.4 -95.5,202.7 14.1,50.8 39.1,97 65.3,142.5 77.1,133.5 165.1,259.9 253.2,386.2 341.8,490.1 721.5,949.7 1116.4,1397.3 266.7,302.3 536.4,602 823.7,885.1 182.2,179.5 370.6,352.2 569.1,513.6 94,76.6 191.5,148.5 297.6,207.8 60.2,33.7 122.7,60.1 190.3,76.8 90.9,22.6 175.4,7.6 257.4,-31.7 62.4,-29.8 118.3,-69.8 169.6,-116.1 167,-150.8 305,-325.9 412.4,-522.5 91.9,-168.2 145.9,-349.6 147.7,-544.8 1.3,-133.4 -22.4,-260.5 -73.1,-383.3 -43.9,-106.3 -98.2,-207.3 -160.6,-303.6 -62.3,-96.2 -125,-192.4 -193,-284.7 -225.3,-306.3 -458.9,-606.1 -710.3,-891.7 -213.3,-242.3 -451.5,-457 -711.8,-646.5 -242.7,-176.7 -505.8,-313.3 -800.8,-382.3 -102.7,-24 -206,-37 -330.5,-36.4" /></g><g
         transform="scale(2.49264)"
         id="g26"><path
           id="path28"
           style="fill:#050607;fill-opacity:1;fill-rule:nonzero;stroke:none"
           d="m 10996.7,13305.9 c 4.2,81.3 -10.3,185 -17.7,289 -2.2,31.1 -12.6,62.2 -22.9,92.1 -27.4,80.1 -69.3,152.7 -120.4,219.9 -99.1,130.3 -217.6,240.1 -353.5,330.7 -28.7,19.2 -60.1,34.6 -91.5,49.2 -125.7,58.8 -253.7,112.1 -384.6,158.4 -54.65,19.3 -106.88,44 -155.99,74.9 -147.23,92.7 -171.3,194.9 -147.71,339.9 12.12,74.4 37.43,145.6 67.64,214.8 37.11,85.1 81.56,166.3 133.19,243.4 98.37,146.9 203.57,288.8 321.07,421 151.2,170 322.6,315.2 527.1,418.5 75.2,38 153.3,67.9 233.5,92.2 165.4,50.1 330.4,46.6 495.5,-3.6 88.7,-27 174.6,-60.5 257.3,-102.5 165.7,-84.2 318.9,-187.8 463.7,-303.9 95,-76 184.9,-157.9 272.1,-242.6 31.1,-30.2 59.6,-63.2 88.6,-95.5 119.6,-133.3 159.1,-291.7 146.1,-466.8 -15,-200.9 -85.1,-384.3 -186.6,-554.8 -265.6,-446.5 -558.3,-873.2 -922.3,-1246.9 -76.8,-78.8 -151,-160.1 -227.4,-239.3 -54.4,-56.5 -113.5,-107.5 -183.6,-144.1 -28.3,-14.7 -57.8,-26.5 -90.7,-26.8 -40.1,-0.2 -65.6,15.4 -80.5,53.3 -13.9,35.4 -19.9,72.8 -20.2,110.7 -0.6,98.5 -0.2,196.9 -0.2,318.8" /></g><g
         transform="scale(2.74203)"
         id="g30"><path
           id="path32"
           style="fill:#050607;fill-opacity:1;fill-rule:nonzero;stroke:none"
           d="m 8262.45,16298.4 c 157.26,1.6 300.65,-44.2 432.67,-127.6 237.31,-150.1 430.45,-345.4 584.02,-579.8 68.49,-104.5 115.87,-218.1 125.6,-345 6.79,-88 -6.42,-173.3 -30.52,-257.4 -26.22,-91.5 -63.6,-178.4 -110.39,-261.2 -28.45,-50.3 -57.26,-100.7 -89.35,-148.9 -108.03,-162.1 -216.12,-324.1 -326.95,-484.3 -108.57,-156.9 -240.77,-291.6 -387.6,-413.5 -96.9,-80.5 -192.77,-85.3 -297.15,-22.2 -38.26,23.2 -76.77,45.9 -115.35,68.5 -307.26,179.8 -635.22,302.1 -987.66,356.1 -101.35,15.6 -202.96,29.3 -304.27,45.2 -127.6,20.1 -171.69,79.1 -157.58,207.1 8.72,79.2 29.76,154.9 62.58,227.4 106.56,235.3 225.89,463.7 371.84,677.3 84.65,124 172.14,245.8 263.27,365.1 149.56,195.9 327.68,363.6 513.09,523.9 88.55,76.5 187.05,135.6 304.7,157.8 49.56,9.3 99.2,10.8 149.05,11.5" /></g><g
         transform="scale(2.33279)"
         id="g34"><path
           id="path36"
           style="fill:#050607;fill-opacity:1;fill-rule:nonzero;stroke:none"
           d="m 16300,12395.1 c -1.2,-134 -17.8,-266.1 -43.2,-396.9 -28.1,-144.4 -87.1,-276.9 -166.4,-400.3 -72.1,-112.2 -154,-217 -242.9,-316.3 -314.7,-351 -683.3,-635.7 -1085.7,-877.3 -183.3,-110.1 -381.3,-190.4 -580.9,-265.4 -167.2,-62.8 -333.8,-53.6 -496.5,17.9 -96.9,42.5 -185.9,98.7 -262.5,172.1 -112,107.3 -214.1,223.3 -301.3,352 -13.9,20.4 -26.2,41.9 -38.5,63.4 -34.1,59.4 -39.6,122.4 -23,188.4 17.5,69.4 47,134 77.5,198.2 72.1,151.5 163.4,291.2 262.2,426.2 162.9,222.5 341.6,432.1 520.7,641.3 284.1,331.9 584.4,648.1 911.1,938.5 97.2,86.4 196.7,169.9 300.5,248.2 79.1,59.7 162.6,112.5 250.1,159.3 40.9,21.8 82.6,41.6 127,55.8 106.7,34.1 206.8,22.7 301.2,-39.2 52.2,-34.3 97.4,-76.2 139.1,-122.1 56.5,-62.1 104.2,-130.8 142.7,-205.3 135.7,-263 203,-543.1 208.8,-838.5" /></g><g
         transform="scale(1.87466)"
         id="g38"><path
           id="path40"
           style="fill:#060708;fill-opacity:1;fill-rule:nonzero;stroke:none"
           d="m 12935.3,15077.3 c -100.3,6.9 -202.7,21 -303.1,49.4 -207.1,58.4 -410,128.9 -608.5,212.2 -372.2,156.3 -738.1,325 -1082,538.2 -39.2,24.3 -78.4,48.6 -115.5,75.8 -19.4,14.3 -27.1,37.2 -16.9,61.7 8.4,19.9 25.6,28.9 46.1,27.4 38.2,-2.8 76.9,-4.8 114.4,-12 300.1,-58 602.3,-66.7 906.8,-47.9 293.3,18.2 578,78.6 859.1,159.6 166.1,47.9 333.1,92.3 504.5,116.5 167.8,23.7 335.8,41.8 505.1,13.2 53.1,-9 106.1,-18.2 154.9,-42.2 41.7,-20.6 52.3,-51 33,-94.9 -10.7,-24.5 -24.2,-47.9 -37.5,-71.3 -110.6,-194 -230.9,-381.8 -361.3,-562.9 -69.7,-96.9 -145.8,-188.8 -232.1,-271.7 -101.6,-97.5 -222.9,-147.7 -367,-151.1" /></g><g
         transform="scale(3.06748)"
         id="g42"><path
           id="path44"
           style="fill:#050607;fill-opacity:1;fill-rule:nonzero;stroke:none"
           d="m 15182.5,8161.25 c -7.4,3916.65 -3156.4,7059.65 -7043,7062.05 -3909.29,2.5 -7052.6,-3155.2 -7056.45,-7054.68 -3.83,-3880.51 3112.21,-7052.07 7045.27,-7068.5 3926.48,11.87 7046.08,3173.05 7054.18,7061.13 z m 1096.7,-10.24 C 16265.9,3653.38 12672.9,27.6132 8189.97,0.163 3684.39,-27.4489 42.1126,3585.61 0.0356563,8099.8 -13.1355,12652.3 3634.15,16304.6 8145.24,16300 c 4499.46,-4.6 8118.96,-3634 8133.96,-8148.99" /></g></g></g></svg>